<?xml version="1.0" encoding="UTF-8"?><svg id="Layer_2" xmlns="http://www.w3.org/2000/svg" viewBox="0 0 220.84 162.3"><defs><style>.cls-1{fill:#000;stroke-width:0px;}</style></defs><g id="Layer_1-2"><path class="cls-1" d="M211.88,1.35c-6.43-2.72-11.86-1.39-17.67,4.42-11.3,11.29-22.59,22.59-33.89,33.89-3.57,3.57-7.14,7.14-10.71,10.71-24.45,24.45-48.89,48.9-73.3,73.39-2.07,2.08-3.15,2.34-5.37.09-14.5-14.73-29.17-29.29-43.8-43.89-1.2-1.2-2.41-2.43-3.79-3.4-4.91-3.42-10.14-4.05-15.49-1.14C2.73,78.21.1,82.62,0,88.47c-.17,5.17,2.56,8.88,5.99,12.3,18.34,18.3,36.64,36.62,54.96,54.93,8.83,8.82,16.47,8.81,25.32-.04,26.35-26.35,52.69-52.71,79.03-79.06,3.83-3.83,7.66-7.66,11.49-11.49,12.46-12.47,24.93-24.93,37.39-37.4,1.56-1.56,3.1-3.22,4.3-5.07,4.95-7.6,1.74-17.75-6.61-21.28Z"/></g></svg>