<?xml version="1.0" encoding="UTF-8"?><svg id="Layer_2" xmlns="http://www.w3.org/2000/svg" viewBox="0 0 327.77 234.47"><defs><style>.cls-1{fill:#000;stroke-width:0px;}</style></defs><g id="Layer_1-2"><path class="cls-1" d="M0,112.43c.37-12.1,6.01-20.86,17.04-25.85,10.73-4.85,22.46-2.51,31.2,6.17,20.42,20.28,40.72,40.67,61.07,61.02,3.41,3.41,6.9,6.75,10.2,10.27,1.59,1.7,2.79,2.07,4.33.09.71-.91,1.63-1.66,2.45-2.48,50.58-50.58,101.2-101.12,151.71-151.78,8.51-8.53,18.3-11.97,29.9-8.56,19.13,5.62,26.16,29.49,13.39,44.83-1.27,1.53-2.7,2.94-4.11,4.35-57.63,57.64-115.27,115.28-172.91,172.91-14.8,14.8-30.36,14.77-45.22-.09-29.88-29.87-59.73-59.77-89.65-89.61C3.5,127.79-.12,121,0,112.43Z"/></g></svg>