<?xml version="1.0" encoding="UTF-8"?><svg id="Layer_2" xmlns="http://www.w3.org/2000/svg" viewBox="0 0 253.77 253.91"><defs><style>.cls-1{fill:#000;stroke-width:0px;}</style></defs><g id="Layer_1-2"><path class="cls-1" d="M45.83,192.93c.38-4.36,1.98-9.4,3.11-14.53,2.03-9.14,4.16-18.25,6.19-27.39.62-2.81,2.09-5.02,4.1-7.03,28.13-28.09,56.23-56.23,84.34-84.34,17.44-17.44,34.89-34.86,52.33-52.3,9.09-9.09,22.86-9.93,32.45-1.4,6.88,6.12,13.45,12.66,19.63,19.49,8.15,9,7.55,23.24-.98,32.02-7.37,7.57-14.92,14.97-22.4,22.44-38.07,38.08-76.16,76.15-114.19,114.28-2.53,2.53-5.28,4.09-8.8,4.85-12.66,2.73-25.27,5.72-37.89,8.61-9.45,2.16-17.9-4.35-17.89-14.7ZM204.88,72.35c-.42-.45-.86-.94-1.32-1.41-6.81-6.83-13.68-13.6-20.4-20.52-1.49-1.53-2.22-1.43-3.68.03-17.85,17.97-35.78,35.86-53.69,53.77-15.06,15.06-30.14,30.12-45.2,45.18q-2.45,2.45-.08,4.81c6.53,6.52,13.11,12.99,19.53,19.6,1.53,1.57,2.26,1.58,3.84,0,28-28.1,56.08-56.13,84.14-84.17,5.22-5.22,10.45-10.43,15.66-15.66.45-.46,1.09-.8,1.21-1.65ZM234.7,40.63c.05-1.31-.7-2.58-1.81-3.68-5.35-5.32-10.67-10.67-16.07-15.94-2.49-2.43-5.28-2.42-7.78.01-4.44,4.33-8.78,8.77-13.2,13.12-.8.79-1.01,1.3-.09,2.21,7.26,7.2,14.48,14.44,21.68,21.7.83.84,1.34.91,2.21.03,4.41-4.48,8.89-8.89,13.32-13.35,1.02-1.03,1.71-2.27,1.73-4.1ZM82.82,183.7c-4.44-4.25-8.65-8.27-12.8-12.25-1.09,4.66-2.26,9.68-3.43,14.71-.19.84.11,1.34,1.04,1.13,5-1.17,9.99-2.36,15.19-3.59Z"/><path class="cls-1" d="M113.24,253.9c-26.26,0-52.51-.03-78.77.02-12.01.02-21.64-4.58-28.61-14.4-3.62-5.1-5.72-10.83-5.73-17.12-.07-36.99-.07-73.99-.08-110.98,0-16.95.14-33.89-.04-50.84-.16-14.91,10.08-28.47,25.21-32.31,2.44-.62,4.91-.99,7.44-.99,24.33,0,48.65-.03,72.98.01,8.09.01,12.92,7.48,9.19,14.12-2.07,3.68-5.47,4.93-9.52,4.93-23.74-.01-47.48,0-71.22-.02-2.56,0-5,.3-7.29,1.51-4.85,2.56-7.51,6.53-7.76,12.03-.07,1.67-.02,3.35-.02,5.03,0,51.26,0,102.51-.01,153.77,0,3.3.2,6.51,2.02,9.43,3.18,5.09,7.96,6.89,13.68,6.89,16.69,0,33.39,0,50.08,0,35.65,0,71.3,0,106.96,0,8.3,0,13.81-3.97,15.49-11.2.32-1.37.31-2.83.31-4.24.02-23.74,0-47.48.02-71.22,0-5.55,3.23-9.64,8.01-10.3,6.11-.85,10.98,3.4,11.02,9.75.05,10.15.02,20.3.02,30.45,0,13.93.02,27.85,0,41.78-.02,16.96-11.17,30.42-27.82,33.49-2.45.45-5.01.42-7.52.42-26.01.03-52.01.02-78.02.02Z"/></g></svg>