<?xml version="1.0" encoding="UTF-8"?><svg id="Layer_2" xmlns="http://www.w3.org/2000/svg" viewBox="0 0 497.21 496.82"><defs><style>.cls-1{fill:#000;stroke-width:0px;}</style></defs><g id="Layer_1-2"><path class="cls-1" d="M159.14,402.91c-10.33,0-20.68.42-30.98-.09-18.22-.92-33.48-15.95-34.14-34.22-.77-21.13-1.2-42.34.24-63.44,1.08-15.81,8.6-29.1,19.84-40.32,44.34-44.25,88.61-88.57,132.91-132.86,38.41-38.4,76.81-76.81,115.22-115.21,22.32-22.31,53.16-22.35,75.42-.11,14.5,14.48,29.01,28.95,43.46,43.48,21.44,21.56,21.47,51.84-.06,73.39-83.02,83.09-166.1,166.12-249.13,249.19-13.49,13.5-29.68,20.42-48.79,20.4-8,0-15.99,0-23.99,0,0-.07,0-.13,0-.2ZM159.01,377.86c8,0,16-.06,23.99.02,11.95.12,22.15-4.09,30.55-12.48,69.07-69.01,138.08-138.07,207.19-207.04,2.36-2.36,2.21-3.6-.06-5.85-25.52-25.37-50.97-50.82-76.35-76.34-2.19-2.2-3.43-2.58-5.86-.15-69.08,69.23-138.27,138.36-207.38,207.56-8.12,8.13-12.18,18.08-12.16,29.66.04,17.16-.02,34.32.03,51.48.02,8.1,4.98,13.06,13.05,13.12,9,.07,17.99.02,26.99.02ZM400.04,24.81c-6.25.33-12.09,2.14-16.71,6.61-7.43,7.17-14.62,14.59-22.01,21.8-1.72,1.67-1.68,2.73,0,4.41,25.96,25.86,51.89,51.77,77.74,77.74,1.93,1.93,3.02,1.67,4.76-.12,6.86-7.04,14-13.8,20.77-20.93,9.85-10.37,9.97-24.8,0-35.02-15.48-15.85-31.27-31.39-46.95-47.04-4.82-4.81-10.77-7.05-17.6-7.45Z"/><path class="cls-1" d="M.02,290.64c0-43.99-.01-87.98,0-131.97.01-41.15,31.66-73.97,72.82-74.51,39.82-.53,79.65-.16,119.47-.1,8.54.01,14.06,5.33,13.93,12.97-.12,7.56-5.67,12.49-14.44,12.5-38.99.05-77.98-.06-116.97.06-22.58.07-40.28,12.66-47.19,33.19-1.87,5.57-2.64,11.31-2.64,17.17,0,87.31-.04,174.63.02,261.94.02,28.48,21.46,49.87,50,49.9,87.48.06,174.96.01,262.44.03,30.53,0,50.29-24.68,49.92-49.95-.56-38.82-.16-77.65-.13-116.47,0-8.53,4.17-13.96,11.1-14.71,8.21-.89,14.16,4.55,14.38,13.4.17,7.16.04,14.33.04,21.49,0,32.16.13,64.32-.04,96.48-.19,36-23.47,65.05-58.37,73.17-4.54,1.06-9.15,1.59-13.85,1.59-89.48-.03-178.96.03-268.44-.05C33.24,496.73.11,463.48.04,424.62c-.08-44.66-.02-89.31-.02-133.97Z"/></g></svg>