<svg width="24" height="24" viewBox="0 0 24 24" fill="none" xmlns="http://www.w3.org/2000/svg">
<g clip-path="url(#clip0_2001_184)">
<path d="M20.9992 9.41374C21.0363 11.7155 19.8513 13.3862 18.2276 14.8447C17.6932 15.3245 17.464 14.8282 17.1646 14.5606C16.8307 14.2625 16.486 13.9619 16.9989 13.5051C17.3246 13.2161 17.6198 12.8907 17.9076 12.5628C19.5734 10.6658 19.6006 8.0114 17.9785 6.29853C16.2815 4.50721 13.7672 4.32469 11.7097 5.86082C11.3617 6.12097 11.0203 6.41085 10.7498 6.74698C10.2666 7.34822 9.91037 7.33914 9.34385 6.77837C8.76661 6.20686 8.99833 5.94506 9.43373 5.46109C12.6819 1.85283 17.1498 2.63824 19.3078 5.08862C20.4062 6.3357 20.9678 7.76612 20.9967 9.41374H20.9992Z" fill="white"/>
<path d="M3.00658 14.6746C2.90268 12.3514 4.12148 10.6988 5.70229 9.20317C6.3018 8.63662 6.5162 9.2073 6.83698 9.48562C7.18003 9.78293 7.48844 10.0712 6.97057 10.5295C6.0742 11.3232 5.26936 12.1838 4.95271 13.4044C4.45958 15.3031 5.1803 17.2712 6.83616 18.4018C8.41367 19.4787 10.6707 19.4061 12.1896 18.216C12.5327 17.9476 12.8691 17.6593 13.1586 17.3364C13.655 16.7806 14.0484 16.5997 14.685 17.2513C15.4016 17.9847 14.7617 18.2796 14.3815 18.6652C10.9403 22.1595 5.93154 21.6681 3.70917 17.6304C3.1979 16.7021 2.9571 15.7177 3.00658 14.6746Z" fill="white"/>
<path d="M9.44854 15.7417C8.96696 15.65 8.75008 15.2387 8.44909 14.9414C8.12666 14.6226 8.35838 14.3707 8.59258 14.137C10.4505 12.2837 12.3174 10.4396 14.1613 8.57225C14.6495 8.07838 14.9249 8.43268 15.2209 8.75394C15.4964 9.05209 15.9953 9.31224 15.4898 9.81685C13.5758 11.7263 11.6635 13.6374 9.74706 15.5451C9.66542 15.6261 9.55162 15.6748 9.44772 15.7417H9.44854Z" fill="white"/>
</g>
<defs>
<clipPath id="clip0_2001_184">
<rect width="18" height="18" fill="white" transform="translate(3 3)"/>
</clipPath>
</defs>
</svg>
