<svg width="24" height="24" viewBox="0 0 24 24" fill="none" xmlns="http://www.w3.org/2000/svg">
<g clip-path="url(#clip0_2001_222)">
<path d="M5.11312 14.5928C6.69036 17.5634 9.13825 19.7596 11.8133 21.7352C12.3775 22.1512 12.7948 22.0404 13.3184 21.6559C15.2877 20.2107 17.0912 18.5926 18.5873 16.6647C19.9906 14.8566 21.0235 12.881 20.9991 9.78435C20.9252 7.39094 19.6463 4.90299 16.9578 3.25785C13.6654 1.24444 9.50687 1.69467 6.70388 4.27177C3.82068 6.92361 3.16635 10.9261 5.11312 14.5928ZM5.99818 10.3138C6.09281 7.7115 7.29783 5.75932 9.6664 4.66256C12.1044 3.53339 14.5207 3.7405 16.6297 5.46307C18.6738 7.13341 19.54 9.34313 18.8415 11.9346C17.9492 15.2447 15.4616 17.3833 12.9435 19.4705C12.6046 19.7515 12.3189 19.6885 12.0187 19.4408C9.76734 17.5805 7.64572 15.6121 6.48036 12.8504C6.13968 12.0436 5.97474 11.2017 5.99998 10.3147L5.99818 10.3138Z" fill="#4B5B33"/>
<path d="M12.5865 13.9906C14.49 13.9428 16.0114 12.3643 15.9888 10.459C15.9672 8.54732 14.408 6.98323 12.5234 6.98413C10.6406 6.98413 9.04356 8.57974 9.04896 10.4536C9.05527 12.4301 10.6632 14.0383 12.5856 13.9906H12.5865ZM12.4513 9.01196C13.4526 9.05788 14.0159 9.59995 14.0268 10.4734C14.0385 11.3522 13.4752 11.9393 12.5405 11.9411C11.6203 11.9429 11.0534 11.4153 11.0345 10.5013C11.0156 9.56844 11.6248 9.12631 12.4504 9.01196H12.4513Z" fill="#4B5B33"/>
</g>
<defs>
<clipPath id="clip0_2001_222">
<rect width="17" height="20" fill="white" transform="translate(4 2)"/>
</clipPath>
</defs>
</svg>
